<?xml version="1.0" encoding="UTF-8"?>
<svg width="1577px" height="254px" viewBox="0 0 1577 254" version="1.1" xmlns="http://www.w3.org/2000/svg" xmlns:xlink="http://www.w3.org/1999/xlink">
    <!-- Generator: Sketch 48.2 (47327) - http://www.bohemiancoding.com/sketch -->
    <title>Page 1</title>
    <desc>Created with Sketch.</desc>
    <defs>
        <polygon id="path-1" points="0.10805 0.8029 40.0155 0.8029 40.0155 40.9639 0.10805 40.9639"></polygon>
        <polygon id="path-3" points="0.5986 0.27033617 162.739933 0.27033617 162.739933 253 0.5986 253"></polygon>
    </defs>
    <g id="Page-1" stroke="none" stroke-width="1" fill="none" fill-rule="evenodd">
        <g>
            <path d="M40,75.0246407 C40,63.9746749 31.044282,55 19.975169,55 C8.93916402,55 0,63.9746749 0,75.0246407 C0,86.0253251 8.93916402,95 19.975169,95 C31.044282,95 40,86.0253251 40,75.0246407 Z" id="Fill-1" fill="#009BDD"></path>
            <g id="Group-5" transform="translate(1537.000000, 211.000000)">
                <mask id="mask-2" fill="white">
                    <use xlink:href="#path-1"></use>
                </mask>
                <g id="Clip-4"></g>
                <path d="M20.01805,40.9639 C31.05105,40.9639 40.01605,31.9769 40.01605,20.9274 C40.01605,9.8339 31.05105,0.8029 20.01805,0.8029 C9.06755,0.8029 0.10805,9.8339 0.10805,20.9274 C0.10805,31.9769 9.06755,40.9639 20.01805,40.9639" id="Fill-3" fill="#803F90" mask="url(#mask-2)"></path>
            </g>
            <path d="M616.879617,130.576787 L616.879617,130.489067 C616.835841,108.164308 609.098495,89.3428696 595.112175,76.6344239 L594.116279,75.7736707 L593.831737,75.537923 L593.798906,75.537923 C580.627907,64.1891385 562.778386,58.207726 541.541724,58.0048733 L541.065663,58.0048733 L540.491108,58.0048733 L540.376197,58.0048733 C539.703146,58.0048733 539.320109,58.0377684 539.002736,58.0377684 C538.729138,58.0377684 538.340629,58.0048733 537.880985,58.0048733 L537.541724,58.0377684 C537.361149,58.0048733 537.186047,58.0048733 536.896033,58.0048733 L536.846785,58.0048733 C536.879617,58.0048733 536.808482,57.9939083 536.704514,58.0048733 C536.666211,57.9939083 536.491108,58.0048733 536.381669,58.0048733 C515.188782,58.218691 497.410397,64.1891385 484.184679,75.537923 L482.920657,76.6344239 C469.02736,89.282562 461.262654,108.06014 461.158687,130.236871 L461.087551,130.236871 L461.087551,130.324591 L461,245.194028 C461,246.745576 461.634747,248.236818 462.838577,249.273011 C463.93844,250.374994 465.55814,251 467.155951,251 L487.549932,251 C489.169631,251 490.805746,250.374994 491.911081,249.273011 C493.087551,248.236818 493.72777,246.745576 493.72777,245.194028 L493.760602,134.211687 C493.837209,117.939614 497.995896,106.415389 505.508892,98.82212 C512.80301,91.4152563 523.856361,87.2650003 539.101231,86.9634626 C554.253078,87.2650003 565.262654,91.4152563 572.512996,98.82212 C580.02052,106.415389 584.151847,117.939614 584.27223,134.233617 L584.255814,245.194028 C584.255814,246.745576 584.967168,248.236818 586.050616,249.273011 C587.188782,250.374994 588.830369,251 590.433653,251 L610.844049,251 C612.414501,251 614.012312,250.374994 615.150479,249.273011 C616.343365,248.236818 617,246.745576 617,245.194028 L616.879617,130.576787 Z" id="Fill-6" fill="#DD0046"></path>
            <path d="M1328.92886,130.576787 L1328.92886,130.489067 C1328.83582,108.164308 1321.1305,89.3428696 1307.10987,76.6344239 L1306.07556,75.7736707 L1305.86213,75.537923 C1292.65691,64.1891385 1274.76721,58.207726 1253.60493,58.0048733 L1253.09051,58.0048733 L1252.5542,58.0048733 L1252.40097,58.0048733 C1251.74426,58.0048733 1251.30646,58.0377684 1251.01095,58.0377684 C1250.75374,58.0377684 1250.37066,58.0048733 1249.8836,58.0048733 L1249.5662,58.0377684 C1249.45675,58.0048733 1249.18859,58.0048733 1248.90402,58.0048733 L1248.87119,58.0048733 C1248.90402,58.0048733 1248.80004,57.9939083 1248.7289,58.0048733 C1248.64681,57.9939083 1248.53189,58.0048733 1248.3294,58.0048733 C1227.15618,58.218691 1209.41423,64.1891385 1196.22543,75.537923 L1196.15428,75.537923 L1194.96127,76.6344239 C1181.00631,89.282562 1173.2791,108.06014 1173.18059,130.236871 L1173.10398,130.324591 L1173,245.194028 C1173,246.745576 1173.65123,248.236818 1174.79499,249.273011 C1175.95517,250.374994 1177.52031,251 1179.14018,251 L1199.55273,251 C1201.18901,251 1202.75416,250.374994 1203.91433,249.273011 C1205.10735,248.236818 1205.72574,246.745576 1205.72574,245.194028 L1205.83519,134.211687 C1205.8735,117.939614 1210.09282,106.415389 1217.57925,98.82212 C1224.77015,91.4152563 1235.88487,87.2650003 1251.10945,86.9634626 C1266.26289,87.2650003 1277.2791,91.4152563 1284.54115,98.82212 C1292.01663,106.415389 1296.15933,117.939614 1296.33993,134.233617 L1296.33993,245.194028 C1296.33993,246.745576 1296.97474,248.236818 1298.04736,249.273011 C1299.21848,250.374994 1300.86024,251 1302.4418,251 L1322.90907,251 C1324.47969,251 1326.06125,250.374994 1327.25426,249.273011 C1328.41444,248.236818 1329,246.745576 1329,245.194028 L1328.92886,130.576787 Z" id="Fill-8" fill="#DD0046"></path>
            <g id="Group-12" transform="translate(816.000000, 1.000000)">
                <mask id="mask-4" fill="white">
                    <use xlink:href="#path-3"></use>
                </mask>
                <g id="Clip-11"></g>
                <path d="M130.399133,154.148123 L130.399133,154.537868 L130.399133,154.581783 L130.399133,154.966038 C130.360867,173.300506 128.463933,191.217783 121.5486,204.029953 C114.666067,216.331613 103.716333,224.543698 82.4346,224.922464 C82.2542,224.900506 82.041,224.900506 81.6856667,224.922464 L81.2811333,224.922464 C59.8408667,224.675443 48.7763333,216.386506 41.8555333,203.997017 C34.891,191.135443 32.9339333,173.0974 32.9339333,154.669613 L32.9339333,153.57723 C32.9339333,135.275698 34.891,120.575187 41.8555333,107.763017 C48.7763333,95.2911872 59.8408667,87.1065489 81.2811333,86.8979532 L81.4506,86.8979532 L81.7567333,86.8979532 L82.0956667,86.8979532 C103.519533,87.1065489 114.649667,95.2911872 121.5486,107.784974 C128.5186,120.575187 130.399133,135.275698 130.399133,153.57723 L130.399133,154.148123 Z M136.478067,76.6163787 C136.3414,76.4791447 136.232067,76.3089745 136.1282,76.1936979 C124.462333,65.4565064 105.9194,58.7814426 84.4080667,58.7485064 L83.2327333,58.7485064 C65.5972667,58.7485064 48.1039333,62.4318681 32.9339333,75.4581234 L32.9339333,64.0292723 L32.9776667,64.0292723 L32.9776667,6.11101702 C32.9776667,4.55752766 32.3435333,3.05893191 31.1736667,1.99399574 C30.0420667,0.852208511 28.4020667,0.27033617 26.8604667,0.27033617 L6.7486,0.27033617 C5.14686667,0.27033617 3.5834,0.852208511 2.3862,1.99399574 C1.21633333,3.05893191 0.5986,4.55752766 0.5986,6.11101702 L0.5986,64.0292723 L0.5986,187.034889 L0.5986,244.700634 C0.5986,246.254123 1.21633333,247.714294 2.3862,248.828634 C3.52873333,249.882591 5.14686667,250.491911 6.7486,250.491911 L26.8604667,250.491911 C28.4020667,250.491911 30.0420667,249.882591 31.1736667,248.828634 C32.3435333,247.714294 32.9776667,246.254123 32.9776667,244.700634 L32.9776667,232.794209 C46.3983333,247.824081 65.6300667,253.000549 83.2327333,253.000549 L84.4955333,253.000549 C105.974067,252.945655 124.5498,246.28706 136.1282,235.571826 C157.7106,214.948294 162.723533,183.428379 162.739933,154.148123 C162.723533,124.961187 157.7106,97.0807191 136.478067,76.6163787 Z" id="Fill-10" fill="#DD0046" mask="url(#mask-4)"></path>
            </g>
            <path d="M404.130296,181.172569 C404.130296,196.525943 400.717496,205.02758 396.156104,208.963218 C385.2912,219.038013 371.738922,220.550877 355.240974,220.611172 L355.070609,220.611172 L354.762852,220.611172 C338.891409,220.622135 328.521113,217.859514 322.591304,213.54566 C317.002226,209.533282 314.067548,203.783304 313.935652,193.774285 L313.935652,193.352218 C313.990609,183.474753 317.068174,177.291745 322.728696,172.934039 C328.707965,168.422855 338.638609,165.5232 353.597774,165.5232 L353.762643,165.5232 L404.130296,165.5232 L404.130296,181.172569 Z M438,121.951628 L438,121.842 C438,102.383065 431.564591,85.6922315 417.907896,74.548565 C404.240209,63.3226777 384.538296,58.0002477 359.159374,58.0002477 L358.302052,58.0002477 L357.961322,58.0002477 C331.351374,57.9563966 310.193113,63.7283005 294.096348,80.7754244 L294.063374,80.6986849 L293.118122,81.8442955 C291.909078,83.1598291 290.738504,84.5411395 289.573426,85.9991893 C289.573426,86.0320777 289.573426,86.0320777 289.507478,86.0485218 L287.930226,88.0601921 C286.930017,89.1564701 286.396939,90.6967408 286.666226,92.3301951 C286.831096,93.8923913 287.578504,95.3942923 288.831513,96.4741262 L289.776765,97.2470022 C290.095513,97.6581065 290.469217,98.0692107 290.985809,98.4529081 L294.546991,101.385452 L304.109426,109.673314 C305.340452,110.703815 306.950678,111.290324 308.52793,111.202622 C310.077704,111.120401 311.567026,110.473597 312.528765,109.278654 L318.661913,102.004849 L318.661913,101.982923 C322.503374,97.8280296 326.432765,94.8735602 331.186504,92.8454458 C337.8912,89.8800136 346.557843,88.5315916 358.890087,88.4219638 L359.1264,88.3671499 L359.483617,88.3671499 C377.245565,88.4219638 388.258852,92.0232373 394.562365,97.5265531 C400.860383,102.964092 404.075339,111.142327 404.130296,123.957817 L404.130296,124.571733 L404.130296,136.575978 L351.564383,136.575978 C330.34567,136.641754 312.594713,141.399601 299.839304,151.37025 C287.072904,161.099718 280,176.09132 280,193.538586 L280,194.18539 C280,208.765888 285.506643,223.028465 295.492243,232.955263 C308.934609,246.165414 326.877913,251 353.976974,251 L354.246261,251 L367.952417,251 C392.7488,251 410.582191,244.882768 422.0736,232.566084 C433.416626,220.238438 438,202.423919 438,180.246214 L438,122.318881 L438,121.951628 Z" id="Fill-13" fill="#DD0046"></path>
            <path d="M1026.94469,193.815424 L1026.94469,193.343598 C1027.06561,183.462684 1030.07754,177.307001 1035.72216,173.000217 C1041.6361,168.424602 1051.65022,165.52781 1066.61095,165.52781 L1066.77034,165.52781 L1117.14325,165.52781 L1117.14325,181.185849 C1117.08829,196.558598 1113.68063,205.056952 1109.11326,209.018096 C1098.25272,219.102005 1084.69353,220.572346 1068.23783,220.616237 L1068.13341,220.616237 L1067.75417,220.616237 C1051.84259,220.62721 1041.48221,217.895008 1035.61773,213.637601 C1029.96761,209.58319 1027.06561,203.806065 1026.94469,193.815424 Z M1151,121.960715 L1151,121.867447 C1151,102.385423 1144.56392,85.6740053 1130.88931,74.5092857 C1117.2147,63.3116481 1097.49424,58.0008626 1072.15115,58.0008626 L1071.26076,58.0008626 L1070.95847,58.0008626 C1044.32376,57.9185674 1023.19077,63.7121516 1007.07034,80.7911549 L1007.03186,80.7527505 L1006.11949,81.8061294 C1004.90482,83.1447985 1003.73963,84.5273584 1002.56343,85.9867271 C1002.54694,86.0196452 1002.54694,86.0361043 1002.54694,86.0361043 L1000.89808,88.0057034 C999.903259,89.1742957 999.397607,90.7379051 999.617456,92.3234598 C999.809824,93.8870692 1000.61777,95.3903287 1001.82694,96.4711394 L1002.76679,97.26666 C1003.10206,97.6836225 1003.49229,98.1115577 1003.94299,98.4571976 L1007.54851,101.348503 L1017.1669,109.649349 C1018.36508,110.741132 1019.9425,111.295254 1021.51442,111.24039 C1023.03687,111.169067 1024.58681,110.433897 1025.49918,109.298223 L1031.60549,102.012352 C1035.49132,97.8207812 1039.40463,94.9185027 1044.19185,92.8666083 C1050.88075,89.887521 1059.51532,88.4830158 1071.93679,88.4336386 L1072.05771,88.4336386 L1072.5084,88.3787751 C1090.2777,88.4336386 1101.23168,92.043656 1107.55783,97.502573 C1113.8675,102.966976 1117.03882,111.169067 1117.08829,123.941287 C1117.08829,124.01261 1117.08829,124.281441 1117.14325,124.533813 L1117.14325,136.592807 L1064.55536,136.592807 C1043.31795,136.614753 1025.60361,141.404335 1012.8084,151.384003 C1000.07914,161.122272 993,176.149381 993,193.579511 L993,194.237873 C993.016489,208.787669 998.44676,223.101553 1008.49936,233.004412 C1021.88816,246.242972 1039.85532,250.999636 1066.95172,250.999636 L1067.25401,250.999636 L1080.94511,250.999636 C1105.79354,251.054499 1123.54086,244.909789 1135.03896,232.620368 C1146.47661,220.314488 1151,202.456423 1151,180.25317 L1151,122.350246 L1151,121.960715 Z" id="Fill-15" fill="#DD0046"></path>
            <path d="M123.242037,58.3323594 L88.7326472,58.3323594 L88.7107121,23.3837434 L88.7107121,6.4646529 C88.7107121,3.48343585 86.0346304,1 82.7608173,1 L61.9498948,1 C60.4254056,1 58.8570463,1.55795255 57.771259,2.5918058 C56.6141827,3.63112917 56,5.06977153 56,6.4646529 L56,37.6552944 L56,201.392487 C56,214.690356 59.8770282,226.642575 68.3110727,235.722979 C76.3557692,244.518937 89.3523137,250 104.460111,250 L104.525916,250 L114.539288,250 L114.539288,249.874187 L123.242037,249.874187 C124.793945,249.874187 126.252629,249.245123 127.382287,248.090927 C128.451623,246.931261 129,245.328515 129,243.671068 L129,223.431612 C129,221.861687 128.451623,220.248001 127.382287,219.082865 C126.252629,217.884908 124.793945,217.250373 123.242037,217.250373 L107.229417,217.250373 C103.961088,217.140971 101.394681,216.736182 99.0750451,215.943014 C97.5944261,215.445233 96.7554087,214.88181 95.9383263,214.345738 C94.9731821,213.683853 94.5289964,213.399407 93.5419171,212.469486 C90.4600361,209.242113 88.7655499,204.116608 88.7326472,196.518607 L88.7326472,90.950703 L123.242037,90.950703 C124.793945,90.950703 126.252629,90.2724077 127.382287,89.1565026 C128.451623,88.0023067 129,86.3995606 129,84.7366432 L129,64.5135984 C129,62.8725615 128.451623,61.3135764 127.382287,60.0992091 C126.252629,58.9778339 124.793945,58.3323594 123.242037,58.3323594" id="Fill-17" fill="#DD0046"></path>
            <path d="M272.576372,82.6442444 L270.688006,80.5289057 C270.633112,80.2822988 270.446471,80.0630927 270.182978,79.8164859 L269.024707,78.5889318 L269.057644,78.5889318 L267.471197,76.9832472 L266.164711,75.5255267 L266.093349,75.5912885 C254.31302,63.2061446 239.656228,58 224.055252,58 L222.891492,58 C211.786364,58 198.721508,62.970498 190.866126,72.3963598 L185.437074,78.8245783 L185.437074,76.1502641 L185.437074,64.4720597 C185.437074,62.970498 184.811278,61.4415356 183.63105,60.3893464 C182.511205,59.3042762 180.9028,58.6795389 179.316353,58.6795389 L159.159147,58.6795389 C157.550742,58.6795389 155.925869,59.3042762 154.784067,60.3893464 C153.620306,61.4415356 153,62.970498 153,64.4720597 L153,76.1502641 L153,245.174598 C153,246.703561 153.620306,248.183202 154.784067,249.251831 C155.925869,250.369782 157.550742,250.98904 159.159147,250.98904 L162.584554,250.98904 C162.765706,250.98904 162.870005,251 162.941368,251 L175.649411,251 C175.726263,251 175.879967,250.98904 176.011713,250.98904 L179.316353,250.98904 C180.9028,250.98904 182.511205,250.369782 183.63105,249.251831 C184.849704,248.183202 185.437074,246.703561 185.437074,245.174598 L185.437074,242.034471 C185.437074,242.00159 185.470011,241.979669 185.470011,241.946789 L185.470011,134.749531 C185.470011,134.585127 185.437074,134.453603 185.437074,134.305639 L185.437074,125.636038 C186.079338,115.656681 189.296147,106.718553 194.450727,100.169771 C199.984078,93.2373786 208.179805,88.7436538 219.197102,88.6614515 C225.015903,88.6614515 228.820082,89.3738713 232.179617,90.7219888 C235.286637,92.1523085 238.585788,94.5306945 242.867547,98.942217 L243.81173,99.9396047 L248.175831,104.79502 C249.279208,105.918451 250.777824,106.641831 252.314866,106.641831 C253.901312,106.674712 255.559122,106.066415 256.700925,104.921063 L271.840787,91.2261628 C273.0814,90.1465728 273.882857,88.5518485 273.970688,86.9571242 C274.135371,85.3623999 273.597407,83.8334374 272.576372,82.6442444" id="Fill-19" fill="#DD0046"></path>
            <path d="M778.667984,152.006856 C778.580585,151.952181 778.465873,151.881105 778.449486,151.837365 L778.400323,151.837365 C766.656034,143.647167 751.88008,140.793173 735.869609,139.448187 L705.913478,136.900368 C693.431757,135.867025 685.718763,133.264533 681.245008,129.781785 C677.437674,126.851246 675.077891,122.138329 674.990492,114.976006 L674.990492,114.795581 L674.990492,114.434731 C675.077891,105.88915 678.382679,99.721898 684.282136,95.4955807 C690.569428,91.0013598 700.587579,88.1145609 714.800901,88.1036261 L714.91015,88.1036261 C733.045517,88.1145609 748.001733,92.3572805 760.532616,100.405326 L760.494379,100.405326 L768.059886,105.763399 C769.321715,106.61085 770.812966,106.933428 772.342455,106.61085 C773.833707,106.255467 775.237559,105.309603 776.12794,104.019292 L787.353295,87.7045042 C788.227289,86.3704533 788.582349,84.7356941 788.3857,83.1774788 C788.254601,82.3573654 787.937779,81.5263173 787.517169,80.8374221 C787.091097,80.0665156 786.435602,79.3666856 785.72002,78.7707365 L784.403567,77.9232861 C766.552247,65.1404533 741.703517,58.0109348 714.800901,58 C693.317045,58 674.990492,63.1284419 661.700326,73.0408782 C648.464785,82.7674221 640.735404,97.5185269 640.735404,114.28711 L640.735404,114.52221 L640.735404,114.615156 L640.735404,115.090822 C640.735404,129.907535 646.208789,142.947337 657.13371,151.881105 C668.217041,160.951558 683.77959,165.773824 703.466296,167.353909 L734.203559,169.863456 C745.494464,170.902266 752.5465,173.422748 756.670657,176.861756 C760.346893,179.814164 762.591964,184.48881 762.641126,191.962776 L762.641126,192.356431 L762.641126,192.389235 C762.570114,201.776799 758.790092,208.283031 751.754443,212.755382 C744.221711,217.533909 731.931175,220.48085 714.800901,220.48085 L714.713501,220.48085 L714.391216,220.48085 L714.254655,220.48085 C691.760244,220.398839 675.716999,215.319603 663.246202,204.986176 L656.702175,199.507819 C655.571446,198.534618 653.987332,198.097224 652.408682,198.277649 C650.89558,198.469008 649.442566,199.283654 648.360999,200.535694 L635.46413,216.128782 C634.431725,217.386289 633.880017,218.988244 634.022041,220.617535 C634.060278,222.186686 634.808635,223.651955 635.922977,224.614221 L642.03547,229.824674 L642.03547,229.835609 C642.161106,229.923088 642.275818,230.021501 642.352293,230.125382 L643.171662,230.792408 L643.259061,230.710397 C662.181023,244.411756 685.789775,251 714.713501,251 L715.205123,251 C739.065148,251 759.177926,245.767677 773.833707,235.658414 C788.369313,225.642096 797,210.218499 797,192.389235 L797,191.498045 C797,173.559433 790.128225,160.027564 778.667984,152.006856" id="Fill-21" fill="#DD0046"></path>
            <path d="M1519.67699,241.77664 L1494.50081,206.306218 L1444.06085,132.69538 L1483.2457,91.1135185 L1506.06795,67.0069814 L1507.44199,65.4859607 C1510.05869,62.8487952 1508.79414,60.0912612 1507.66096,59.0407721 C1506.48399,57.9136848 1504.93477,57.3118421 1503.2706,57.3118421 L1477.15831,57.3118421 C1475.53793,57.3118421 1473.50697,58.5100562 1472.38475,59.516775 C1472.38475,59.516775 1472.42307,59.516775 1472.38475,59.516775 L1384.40222,153.283873 L1384.40222,74.9294203 L1384.40222,5.79957543 C1384.40222,4.26214081 1383.77816,2.75206268 1382.58477,1.71798744 C1381.46254,0.579957543 1379.85858,0 1378.27104,0 L1358.16951,0 C1356.56007,0 1354.97253,0.579957543 1353.83388,1.71798744 C1352.67881,2.75206268 1352,4.26214081 1352,5.79957543 L1352,74.9294203 L1352,244.0144 C1352,245.584663 1352.67881,247.050971 1353.83388,248.128816 C1354.93421,249.201191 1356.56007,249.863218 1358.16951,249.863218 L1378.27104,249.863218 C1379.85858,249.863218 1381.46254,249.201191 1382.58477,248.128816 C1383.811,247.050971 1384.40222,245.584663 1384.40222,244.0144 L1384.40222,195.970936 L1422.50317,154.66264 L1448.18846,193.043792 L1448.11729,193.043792 L1484.15443,246.892303 C1484.91536,248.063161 1486.2894,250 1489.30025,250 L1515.5056,250 C1517.14788,250 1518.71352,249.343444 1519.90691,248.260127 C1521.02914,247.198696 1521.75722,244.430219 1519.67699,241.77664" id="Fill-23" fill="#DD0046"></path>
            <path d="M1295,3 L1298.62574,3 L1304.01399,18.2154993 L1309.41343,3 L1313,3 L1313,21 L1310.58284,21 L1310.58284,10.3502235 C1310.58284,9.98002981 1310.59963,9.41132638 1310.59963,8.5314456 C1310.59963,7.67839046 1310.65558,6.81460507 1310.65558,5.81669151 L1305.26733,21 L1302.73827,21 L1297.3668,5.81669151 L1297.3668,6.34783905 L1297.3668,8.35439642 C1297.40037,9.30402385 1297.40037,9.94783905 1297.40037,10.3502235 L1297.40037,21 L1295,21 L1295,3 Z" id="Fill-25" fill="#DD0046"></path>
            <path d="M1331.08743,11.2247392 C1332.20765,11.2247392 1333.11475,11.0154993 1333.80874,10.5487332 C1334.40984,10.1302534 1334.78142,9.30402385 1334.78142,8.05931446 C1334.78142,6.81460507 1334.3388,5.91326379 1333.37705,5.44113264 C1332.87432,5.19433681 1332.20765,5.07630402 1331.40984,5.07630402 L1325.47541,5.07630402 L1325.47541,11.2247392 L1331.08743,11.2247392 Z M1323,3 L1331.37158,3 C1332.74317,3 1333.89617,3.18777943 1334.74863,3.60089419 C1336.45355,4.34128167 1337.28415,5.75230999 1337.28415,7.83397914 C1337.28415,8.90163934 1337.09836,9.78688525 1336.62842,10.4843517 C1336.13661,11.1496274 1335.51366,11.7451565 1334.6776,12.1529061 C1335.40437,12.4587183 1335.99454,12.8074516 1336.34973,13.2742176 C1336.68306,13.7409836 1336.88525,14.518927 1336.88525,15.5651267 L1337.02186,17.9418778 C1337.02186,18.6608048 1337.11475,19.1597615 1337.18579,19.5031297 C1337.35519,20.0342772 1337.60656,20.4098361 1338,20.5600596 L1338,21 L1334.96175,21 C1334.87432,20.8122206 1334.83607,20.6244411 1334.74863,20.4098361 C1334.6776,20.1576751 1334.6612,19.6801788 1334.64481,18.9827124 L1334.48087,15.9675112 C1334.39344,14.7710879 1334,13.9824143 1333.18033,13.5907601 C1332.74317,13.376155 1331.95628,13.2742176 1330.98361,13.2742176 L1325.47541,13.2742176 L1325.47541,21 L1323,21 L1323,3 Z" id="Fill-27" fill="#DD0046"></path>
            <path d="M1317.09,21.46 C1316.445,21.46 1316,20.975 1316,20.24 C1316,19.5 1316.46,19 1317.165,19 C1317.82,19 1318.295,19.5 1318.295,20.24 C1318.295,20.975 1317.82,21.46 1317.09,21.46" id="Fill-29" fill="#DD0046"></path>
            <path d="M1342.155,21.46 C1341.49,21.46 1341,20.975 1341,20.24 C1341,19.5 1341.49,19 1342.185,19 C1342.885,19 1343.34,19.5 1343.34,20.24 C1343.34,20.975 1342.885,21.46 1342.17,21.46 L1342.155,21.46 Z" id="Fill-31" fill="#DD0046"></path>
        </g>
    </g>
</svg>